# xmcd CD database file generated by Grip 3.2.0
# 
# Track frame offsets:
#       150
#       21292
#       34110
#       48420
#       57492
#       66667
#       79375
#       90765
#       105512
#       117152
# 
# Disc length: 1751 seconds
# 
# Revision: 4
# Processed by: cddbd v1.5.2PL0 Copyright (c) Steve Scherf et al.
# Submitted via: Grip 3.2.0
# 
DISCID=8106d50a
DTITLE=Creedence Clearwater Revival - Live in Germany
DYEAR=1973
DGENRE=Classic Rock
TTITLE0=Green River - Suzie Q.
TTITLE1=Up Around the Bend
TTITLE2=Lodi
TTITLE3=Door to Door
TTITLE4=Travellin' Band
TTITLE5=Proud Mary
TTITLE6=Hey Tonight
TTITLE7=It Came Out of the Sky
TTITLE8=Fortunate Son
TTITLE9=Sweet Hitch-Hiker
EXTD=Jahr: 1973
EXTT0=
EXTT1=
EXTT2=
EXTT3=
EXTT4=
EXTT5=
EXTT6=
EXTT7=
EXTT8=
EXTT9=
PLAYORDER=
